<svg width="16" height="16" viewBox="0 0 16 16" xmlns="http://www.w3.org/2000/svg">
  <!-- Shield Background -->
  <path d="M8 0.5 L2 3 L2 9.5 Q2 12 8 14.5 Q14 12 14 9.5 L14 3 Z" 
        fill="#1e40af"/>
  
  <!-- Inner Shield -->
  <path d="M8 1.8 L3.5 3.5 L3.5 9 Q3.5 10.8 8 13 Q12.5 10.8 12.5 9 L12.5 3.5 Z" 
        fill="#3b82f6"/>
  
  <!-- Open Book -->
  <g transform="translate(8, 7)">
    <!-- Left Page -->
    <path d="M-2.5 0.5 Q-2.5 -0.8 -1.2 -1.2 L0 -0.8 L0 1.2 Q-1.2 0.8 -2.5 1.2 Z" 
          fill="#ffffff"/>
    
    <!-- Right Page -->
    <path d="M2.5 0.5 Q2.5 -0.8 1.2 -1.2 L0 -0.8 L0 1.2 Q1.2 0.8 2.5 1.2 Z" 
          fill="#ffffff"/>
  </g>
  
  <!-- Center Star -->
  <g fill="#fbbf24">
    <path d="M8 3.5 L8.3 4.3 L9.1 4.3 L8.4 4.8 L8.7 5.6 L8 5.1 L7.3 5.6 L7.6 4.8 L6.9 4.3 L7.7 4.3 Z"/>
  </g>
</svg>