<svg width="32" height="32" viewBox="0 0 32 32" xmlns="http://www.w3.org/2000/svg">
  <!-- Shield Background -->
  <path d="M16 1 L4 6 L4 19 Q4 24 16 29 Q28 24 28 19 L28 6 Z" 
        fill="#1e40af"/>
  
  <!-- Inner Shield -->
  <path d="M16 3.5 L7 7 L7 18 Q7 21.5 16 26 Q25 21.5 25 18 L25 7 Z" 
        fill="#3b82f6"/>
  
  <!-- Open Book -->
  <g transform="translate(16, 14)">
    <!-- Left Page -->
    <path d="M-5 1 Q-5 -1.5 -2.5 -2.5 L0 -1.5 L0 2.5 Q-2.5 1.5 -5 2.5 Z" 
          fill="#ffffff"/>
    
    <!-- Right Page -->
    <path d="M5 1 Q5 -1.5 2.5 -2.5 L0 -1.5 L0 2.5 Q2.5 1.5 5 2.5 Z" 
          fill="#ffffff"/>
    
    <!-- Book Spine -->
    <line x1="0" y1="-1.5" x2="0" y2="2.5" stroke="#e2e8f0" stroke-width="0.3"/>
  </g>
  
  <!-- Three Stars -->
  <g fill="#fbbf24">
    <!-- Left Star -->
    <path d="M12 9.5 L12.3 10.5 L13.3 10.5 L12.5 11.1 L12.8 12.1 L12 11.5 L11.2 12.1 L11.5 11.1 L10.7 10.5 L11.7 10.5 Z"/>
    
    <!-- Center Star (Larger) -->
    <path d="M16 7 L16.5 8.5 L18 8.5 L16.8 9.3 L17.3 10.8 L16 9.8 L14.7 10.8 L15.2 9.3 L14 8.5 L15.5 8.5 Z"/>
    
    <!-- Right Star -->
    <path d="M20 9.5 L20.3 10.5 L21.3 10.5 L20.5 11.1 L20.8 12.1 L20 11.5 L19.2 12.1 L19.5 11.1 L18.7 10.5 L19.7 10.5 Z"/>
  </g>
</svg>